<svg baseProfile="full" height="400" version="1.1" width="800" xmlns="http://www.w3.org/2000/svg" xmlns:ev="http://www.w3.org/2001/xml-events" xmlns:xlink="http://www.w3.org/1999/xlink"><defs /><rect fill="#000000" fill-opacity="0.0" height="400" rx="20" ry="20" width="800" x="0" y="0" /><text fill="#5e7cff" fill-opacity="1" style="font-size: 20px; font-family: Arial" text-anchor="middle" x="400.0" y="30.0">DiamondPie's Repo Traffic Stats</text><line stroke="#414868" stroke-opacity="1" x1="60" x2="750" y1="320" y2="320" /><line stroke="#414868" stroke-opacity="1" x1="60" x2="60" y1="60" y2="320" /><line opacity="0.5" stroke="#414868" stroke-dasharray="5,5" stroke-opacity="1" stroke-width="1" x1="60" x2="750" y1="320.0" y2="320.0" /><text fill="#5e7cff" fill-opacity="1" style="font-size: 12px; font-family: Arial" text-anchor="end" x="50" y="325.0">0</text><line opacity="0.5" stroke="#414868" stroke-dasharray="5,5" stroke-opacity="1" stroke-width="1" x1="60" x2="750" y1="294.0" y2="294.0" /><text fill="#5e7cff" fill-opacity="1" style="font-size: 12px; font-family: Arial" text-anchor="end" x="50" y="299.0">10</text><line opacity="0.5" stroke="#414868" stroke-dasharray="5,5" stroke-opacity="1" stroke-width="1" x1="60" x2="750" y1="268.0" y2="268.0" /><text fill="#5e7cff" fill-opacity="1" style="font-size: 12px; font-family: Arial" text-anchor="end" x="50" y="273.0">20</text><line opacity="0.5" stroke="#414868" stroke-dasharray="5,5" stroke-opacity="1" stroke-width="1" x1="60" x2="750" y1="242.0" y2="242.0" /><text fill="#5e7cff" fill-opacity="1" style="font-size: 12px; font-family: Arial" text-anchor="end" x="50" y="247.0">30</text><line opacity="0.5" stroke="#414868" stroke-dasharray="5,5" stroke-opacity="1" stroke-width="1" x1="60" x2="750" y1="216.0" y2="216.0" /><text fill="#5e7cff" fill-opacity="1" style="font-size: 12px; font-family: Arial" text-anchor="end" x="50" y="221.0">40</text><line opacity="0.5" stroke="#414868" stroke-dasharray="5,5" stroke-opacity="1" stroke-width="1" x1="60" x2="750" y1="190.0" y2="190.0" /><text fill="#5e7cff" fill-opacity="1" style="font-size: 12px; font-family: Arial" text-anchor="end" x="50" y="195.0">50</text><line opacity="0.5" stroke="#414868" stroke-dasharray="5,5" stroke-opacity="1" stroke-width="1" x1="60" x2="750" y1="164.0" y2="164.0" /><text fill="#5e7cff" fill-opacity="1" style="font-size: 12px; font-family: Arial" text-anchor="end" x="50" y="169.0">60</text><line opacity="0.5" stroke="#414868" stroke-dasharray="5,5" stroke-opacity="1" stroke-width="1" x1="60" x2="750" y1="138.0" y2="138.0" /><text fill="#5e7cff" fill-opacity="1" style="font-size: 12px; font-family: Arial" text-anchor="end" x="50" y="143.0">70</text><line opacity="0.5" stroke="#414868" stroke-dasharray="5,5" stroke-opacity="1" stroke-width="1" x1="60" x2="750" y1="112.0" y2="112.0" /><text fill="#5e7cff" fill-opacity="1" style="font-size: 12px; font-family: Arial" text-anchor="end" x="50" y="117.0">80</text><line opacity="0.5" stroke="#414868" stroke-dasharray="5,5" stroke-opacity="1" stroke-width="1" x1="60" x2="750" y1="86.0" y2="86.0" /><text fill="#5e7cff" fill-opacity="1" style="font-size: 12px; font-family: Arial" text-anchor="end" x="50" y="91.0">90</text><line opacity="0.5" stroke="#414868" stroke-dasharray="5,5" stroke-opacity="1" stroke-width="1" x1="60" x2="750" y1="60.0" y2="60.0" /><text fill="#5e7cff" fill-opacity="1" style="font-size: 12px; font-family: Arial" text-anchor="end" x="50" y="65.0">100</text><line opacity="0.5" stroke="#414868" stroke-dasharray="5,5" stroke-opacity="1" stroke-width="1" x1="60.0" x2="60.0" y1="60" y2="320" /><line opacity="0.5" stroke="#414868" stroke-dasharray="5,5" stroke-opacity="1" stroke-width="1" x1="113.07692307692308" x2="113.07692307692308" y1="60" y2="320" /><line opacity="0.5" stroke="#414868" stroke-dasharray="5,5" stroke-opacity="1" stroke-width="1" x1="166.15384615384616" x2="166.15384615384616" y1="60" y2="320" /><line opacity="0.5" stroke="#414868" stroke-dasharray="5,5" stroke-opacity="1" stroke-width="1" x1="219.23076923076923" x2="219.23076923076923" y1="60" y2="320" /><line opacity="0.5" stroke="#414868" stroke-dasharray="5,5" stroke-opacity="1" stroke-width="1" x1="272.3076923076923" x2="272.3076923076923" y1="60" y2="320" /><line opacity="0.5" stroke="#414868" stroke-dasharray="5,5" stroke-opacity="1" stroke-width="1" x1="325.3846153846154" x2="325.3846153846154" y1="60" y2="320" /><line opacity="0.5" stroke="#414868" stroke-dasharray="5,5" stroke-opacity="1" stroke-width="1" x1="378.46153846153845" x2="378.46153846153845" y1="60" y2="320" /><line opacity="0.5" stroke="#414868" stroke-dasharray="5,5" stroke-opacity="1" stroke-width="1" x1="431.53846153846155" x2="431.53846153846155" y1="60" y2="320" /><line opacity="0.5" stroke="#414868" stroke-dasharray="5,5" stroke-opacity="1" stroke-width="1" x1="484.61538461538464" x2="484.61538461538464" y1="60" y2="320" /><line opacity="0.5" stroke="#414868" stroke-dasharray="5,5" stroke-opacity="1" stroke-width="1" x1="537.6923076923077" x2="537.6923076923077" y1="60" y2="320" /><line opacity="0.5" stroke="#414868" stroke-dasharray="5,5" stroke-opacity="1" stroke-width="1" x1="590.7692307692308" x2="590.7692307692308" y1="60" y2="320" /><line opacity="0.5" stroke="#414868" stroke-dasharray="5,5" stroke-opacity="1" stroke-width="1" x1="643.8461538461539" x2="643.8461538461539" y1="60" y2="320" /><line opacity="0.5" stroke="#414868" stroke-dasharray="5,5" stroke-opacity="1" stroke-width="1" x1="696.9230769230769" x2="696.9230769230769" y1="60" y2="320" /><line opacity="0.5" stroke="#414868" stroke-dasharray="5,5" stroke-opacity="1" stroke-width="1" x1="750.0" x2="750.0" y1="60" y2="320" /><circle cx="60.0" cy="281.0" fill="#8aadf4" fill-opacity="1" r="4" /><circle cx="113.07692307692308" cy="294.0" fill="#8aadf4" fill-opacity="1" r="4" /><circle cx="166.15384615384616" cy="301.8" fill="#8aadf4" fill-opacity="1" r="4" /><circle cx="219.23076923076923" cy="309.6" fill="#8aadf4" fill-opacity="1" r="4" /><circle cx="272.3076923076923" cy="195.2" fill="#8aadf4" fill-opacity="1" r="4" /><circle cx="325.3846153846154" cy="62.599999999999966" fill="#8aadf4" fill-opacity="1" r="4" /><circle cx="378.46153846153845" cy="304.4" fill="#8aadf4" fill-opacity="1" r="4" /><circle cx="431.53846153846155" cy="273.2" fill="#8aadf4" fill-opacity="1" r="4" /><circle cx="484.61538461538464" cy="283.6" fill="#8aadf4" fill-opacity="1" r="4" /><circle cx="537.6923076923077" cy="291.4" fill="#8aadf4" fill-opacity="1" r="4" /><circle cx="590.7692307692308" cy="307.0" fill="#8aadf4" fill-opacity="1" r="4" /><circle cx="643.8461538461539" cy="307.0" fill="#8aadf4" fill-opacity="1" r="4" /><circle cx="696.9230769230769" cy="257.6" fill="#8aadf4" fill-opacity="1" r="4" /><circle cx="750.0" cy="294.0" fill="#8aadf4" fill-opacity="1" r="4" /><path d="M 60.0,281.0 C 77.6923076923077,281.0 95.38461538461539,294.0 113.07692307692308,294.0 C 130.76923076923077,294.0 148.46153846153845,301.8 166.15384615384616,301.8 C 183.84615384615384,301.8 201.53846153846155,309.6 219.23076923076923,309.6 C 236.92307692307693,309.6 254.6153846153846,195.2 272.3076923076923,195.2 C 290.0,195.2 307.69230769230774,62.599999999999966 325.3846153846154,62.599999999999966 C 343.0769230769231,62.599999999999966 360.7692307692308,304.4 378.46153846153845,304.4 C 396.15384615384613,304.4 413.84615384615387,273.2 431.53846153846155,273.2 C 449.2307692307692,273.2 466.92307692307696,283.6 484.61538461538464,283.6 C 502.3076923076923,283.6 520.0,291.4 537.6923076923077,291.4 C 555.3846153846155,291.4 573.0769230769231,307.0 590.7692307692308,307.0 C 608.4615384615386,307.0 626.1538461538462,307.0 643.8461538461539,307.0 C 661.5384615384615,307.0 679.2307692307693,257.6 696.9230769230769,257.6 C 714.6153846153846,257.6 732.3076923076923,294.0 750.0,294.0" fill="none" stroke="#8aadf4" stroke-dasharray="1108.507067737394" stroke-dashoffset="1108.507067737394" stroke-linecap="round" stroke-linejoin="round" stroke-opacity="0.4" stroke-width="4"><animate attributeName="stroke-dashoffset" dur="2s" fill="freeze" from="1108.507067737394" repeatCount="1" to="0" /></path><circle cx="60.0" cy="320.0" fill="#cba6f7" fill-opacity="1" r="4" /><circle cx="113.07692307692308" cy="320.0" fill="#cba6f7" fill-opacity="1" r="4" /><circle cx="166.15384615384616" cy="320.0" fill="#cba6f7" fill-opacity="1" r="4" /><circle cx="219.23076923076923" cy="320.0" fill="#cba6f7" fill-opacity="1" r="4" /><circle cx="272.3076923076923" cy="291.4" fill="#cba6f7" fill-opacity="1" r="4" /><circle cx="325.3846153846154" cy="314.8" fill="#cba6f7" fill-opacity="1" r="4" /><circle cx="378.46153846153845" cy="291.4" fill="#cba6f7" fill-opacity="1" r="4" /><circle cx="431.53846153846155" cy="312.2" fill="#cba6f7" fill-opacity="1" r="4" /><circle cx="484.61538461538464" cy="314.8" fill="#cba6f7" fill-opacity="1" r="4" /><circle cx="537.6923076923077" cy="320.0" fill="#cba6f7" fill-opacity="1" r="4" /><circle cx="590.7692307692308" cy="320.0" fill="#cba6f7" fill-opacity="1" r="4" /><circle cx="643.8461538461539" cy="320.0" fill="#cba6f7" fill-opacity="1" r="4" /><circle cx="696.9230769230769" cy="320.0" fill="#cba6f7" fill-opacity="1" r="4" /><circle cx="750.0" cy="320.0" fill="#cba6f7" fill-opacity="1" r="4" /><path d="M 60.0,320.0 C 77.6923076923077,320.0 95.38461538461539,320.0 113.07692307692308,320.0 C 130.76923076923077,320.0 148.46153846153845,320.0 166.15384615384616,320.0 C 183.84615384615384,320.0 201.53846153846155,320.0 219.23076923076923,320.0 C 236.92307692307693,320.0 254.6153846153846,291.4 272.3076923076923,291.4 C 290.0,291.4 307.69230769230774,314.8 325.3846153846154,314.8 C 343.0769230769231,314.8 360.7692307692308,291.4 378.46153846153845,291.4 C 396.15384615384613,291.4 413.84615384615387,312.2 431.53846153846155,312.2 C 449.2307692307692,312.2 466.92307692307696,314.8 484.61538461538464,314.8 C 502.3076923076923,314.8 520.0,320.0 537.6923076923077,320.0 C 555.3846153846155,320.0 573.0769230769231,320.0 590.7692307692308,320.0 C 608.4615384615386,320.0 626.1538461538462,320.0 643.8461538461539,320.0 C 661.5384615384615,320.0 679.2307692307693,320.0 696.9230769230769,320.0 C 714.6153846153846,320.0 732.3076923076923,320.0 750.0,320.0" fill="none" stroke="#cba6f7" stroke-dasharray="714.8213946239442" stroke-dashoffset="714.8213946239442" stroke-linecap="round" stroke-linejoin="round" stroke-opacity="0.4" stroke-width="4"><animate attributeName="stroke-dashoffset" dur="2s" fill="freeze" from="714.8213946239442" repeatCount="1" to="0" /></path><text fill="#5e7cff" fill-opacity="1" style="font-size: 12px; font-family: Arial" transform="rotate(45, 60.0, 340)" x="60.0" y="340">08</text><text fill="#5e7cff" fill-opacity="1" style="font-size: 12px; font-family: Arial" transform="rotate(45, 113.07692307692308, 340)" x="113.07692307692308" y="340">09</text><text fill="#5e7cff" fill-opacity="1" style="font-size: 12px; font-family: Arial" transform="rotate(45, 166.15384615384616, 340)" x="166.15384615384616" y="340">10</text><text fill="#5e7cff" fill-opacity="1" style="font-size: 12px; font-family: Arial" transform="rotate(45, 219.23076923076923, 340)" x="219.23076923076923" y="340">11</text><text fill="#5e7cff" fill-opacity="1" style="font-size: 12px; font-family: Arial" transform="rotate(45, 272.3076923076923, 340)" x="272.3076923076923" y="340">12</text><text fill="#5e7cff" fill-opacity="1" style="font-size: 12px; font-family: Arial" transform="rotate(45, 325.3846153846154, 340)" x="325.3846153846154" y="340">13</text><text fill="#5e7cff" fill-opacity="1" style="font-size: 12px; font-family: Arial" transform="rotate(45, 378.46153846153845, 340)" x="378.46153846153845" y="340">14</text><text fill="#5e7cff" fill-opacity="1" style="font-size: 12px; font-family: Arial" transform="rotate(45, 431.53846153846155, 340)" x="431.53846153846155" y="340">15</text><text fill="#5e7cff" fill-opacity="1" style="font-size: 12px; font-family: Arial" transform="rotate(45, 484.61538461538464, 340)" x="484.61538461538464" y="340">16</text><text fill="#5e7cff" fill-opacity="1" style="font-size: 12px; font-family: Arial" transform="rotate(45, 537.6923076923077, 340)" x="537.6923076923077" y="340">17</text><text fill="#5e7cff" fill-opacity="1" style="font-size: 12px; font-family: Arial" transform="rotate(45, 590.7692307692308, 340)" x="590.7692307692308" y="340">18</text><text fill="#5e7cff" fill-opacity="1" style="font-size: 12px; font-family: Arial" transform="rotate(45, 643.8461538461539, 340)" x="643.8461538461539" y="340">19</text><text fill="#5e7cff" fill-opacity="1" style="font-size: 12px; font-family: Arial" transform="rotate(45, 696.9230769230769, 340)" x="696.9230769230769" y="340">20</text><text fill="#5e7cff" fill-opacity="1" style="font-size: 12px; font-family: Arial" transform="rotate(45, 750.0, 340)" x="750.0" y="340">21</text><text fill="#5e7cff" fill-opacity="1" style="font-size: 14px; font-family: Arial" text-anchor="middle" x="400.0" y="373.3333333333333">Days</text><text fill="#5e7cff" fill-opacity="1" style="font-size: 14px; font-family: Arial" text-anchor="middle" transform="rotate(-90, 20.0, 200.0)" x="20.0" y="200.0">Count</text><line stroke="#8aadf4" stroke-opacity="0.4" stroke-width="3" x1="340.0" x2="360.0" y1="388.3333333333333" y2="388.3333333333333" /><text fill="#5e7cff" fill-opacity="1" style="font-size: 12px; font-family: Arial" x="370.0" y="393.3333333333333">Clones</text><line stroke="#cba6f7" stroke-opacity="0.4" stroke-width="3" x1="440.0" x2="460.0" y1="388.3333333333333" y2="388.3333333333333" /><text fill="#5e7cff" fill-opacity="1" style="font-size: 12px; font-family: Arial" x="470.0" y="393.3333333333333">Views</text></svg>